<svg width="46" height="45" viewBox="0 0 46 45" fill="none" xmlns="http://www.w3.org/2000/svg">
<path d="M39.6598 5.34724C32.4118 -1.78241 20.6605 -1.78241 13.4125 5.34724C6.16457 12.4792 6.16457 24.0402 13.4125 31.1699L26.535 44.0812L39.6598 31.1699C46.9078 24.0402 46.9078 12.4792 39.6598 5.34724ZM26.535 24.3604C24.9852 24.3604 23.5305 23.7572 22.4331 22.6621C20.171 20.4 20.171 16.7203 22.4331 14.4583C23.5282 13.3632 24.9852 12.7599 26.535 12.7599C28.0848 12.7599 29.5418 13.3632 30.6369 14.4583C32.899 16.7203 32.899 20.4023 30.6369 22.6621C29.5418 23.7572 28.0848 24.3604 26.535 24.3604Z" fill="url(#paint0_linear_3856_6739)"/>
<path d="M21.3595 13.5506C24.2282 10.682 28.8792 10.682 31.7479 13.5506C34.6166 16.4193 34.6166 21.0704 31.7479 23.939L17.7043 37.9826L7.31593 27.5942L21.3595 13.5506Z" fill="#03296A"/>
<path d="M8.34277 26.5439L18.7312 36.9323L16.4226 39.2409L6.09837 39.1768L6.03424 28.8525L8.34277 26.5439Z" fill="#03296A"/>
<circle cx="26.6816" cy="18.5936" r="4.08095" transform="rotate(45 26.6816 18.5936)" fill="white"/>
<defs>
<linearGradient id="paint0_linear_3856_6739" x1="26.5362" y1="0" x2="26.5362" y2="44.0812" gradientUnits="userSpaceOnUse">
<stop stop-color="#365DE8"/>
<stop offset="1" stop-color="#2FA2FC"/>
</linearGradient>
</defs>
</svg>
