<svg width="145" height="45" viewBox="0 0 145 45" fill="none" xmlns="http://www.w3.org/2000/svg">
<path d="M33.6658 5.35344C26.4094 -1.78448 14.6445 -1.78448 7.38815 5.35344C0.131767 12.4937 0.131767 24.0681 7.38815 31.206L20.5258 44.1323L33.6658 31.206C40.9222 24.0681 40.9222 12.4937 33.6658 5.35344Z" fill="#2C6DFF"/>
<path d="M33.6658 5.35344C26.4094 -1.78448 14.6445 -1.78448 7.38815 5.35344C0.131767 12.4937 0.131767 24.0681 7.38815 31.206L20.5258 44.1323L33.6658 31.206C40.9222 24.0681 40.9222 12.4937 33.6658 5.35344Z" fill="#2C6DFF"/>
<path fill-rule="evenodd" clip-rule="evenodd" d="M25.7443 13.5661C22.8723 10.6941 18.2159 10.6941 15.3439 13.5661L2.32287 26.5871L2.31115 26.5754L-6.10352e-05 28.8866L0.0641393 39.2228L10.4004 39.287L11.6727 38.0147L11.6845 38.0264L25.7443 23.9666C28.6163 21.0946 28.6163 16.4381 25.7443 13.5661Z" fill="#03296A"/>
<path fill-rule="evenodd" clip-rule="evenodd" d="M12.9914 36.7194L25.7442 23.9666C28.6162 21.0946 28.6162 16.4381 25.7442 13.5661C22.8722 10.6941 18.2158 10.6941 15.3438 13.5661L3.43835 25.4715C4.34336 27.5548 5.6599 29.5063 7.38797 31.2061L12.9914 36.7194Z" fill="#03296A"/>
<path fill-rule="evenodd" clip-rule="evenodd" d="M12.9915 36.7187L7.38813 31.2054C5.66006 29.5056 4.34353 27.5541 3.43852 25.4708L2.32293 26.5864L2.31121 26.5747L0 28.8859L0.0642001 39.2221L10.4004 39.2863L11.6728 38.014L11.6845 38.0257L12.9915 36.7187ZM15.3439 13.5654H15.3439C15.7029 13.2064 16.0898 12.8923 16.4976 12.623C16.0898 12.8923 15.7029 13.2064 15.3439 13.5654Z" fill="#2FA2FC"/>
<circle cx="20.6725" cy="18.613" r="4.08568" transform="rotate(45 20.6725 18.613)" fill="white"/>
<path d="M46.0083 33.3915C46.0083 33.3152 46.0737 33.2662 46.2044 33.2444L47.4301 33.0483C47.6589 33.0047 47.8169 32.9502 47.9041 32.8849C48.0021 32.8086 48.0511 32.6996 48.0511 32.558V11.6066C48.0511 11.4541 48.0021 11.3397 47.9041 11.2634C47.806 11.1872 47.6535 11.1273 47.4465 11.0837L46.1717 10.8712C46.0628 10.8603 46.0083 10.8113 46.0083 10.7241C46.0083 10.6915 46.0246 10.6697 46.0573 10.6588C46.09 10.637 46.1281 10.6261 46.1717 10.6261H54.768C56.74 10.6261 58.5432 10.9094 60.1774 11.4759C61.8117 12.0316 63.2281 12.8596 64.4265 13.96C65.625 15.0604 66.5511 16.4114 67.2048 18.013C67.8585 19.6037 68.1854 21.4286 68.1854 23.4878C68.1854 25.6124 67.6896 27.4209 66.6982 28.9136C65.7176 30.4062 64.3285 31.5448 62.5308 32.3292C60.744 33.1137 58.6358 33.5059 56.2062 33.5059H46.1717C46.1173 33.5059 46.0737 33.495 46.041 33.4732C46.0192 33.4514 46.0083 33.4242 46.0083 33.3915ZM56.2062 33.1627C57.3393 33.1627 58.3471 32.8195 59.2296 32.1331C60.123 31.4467 60.8257 30.3517 61.3378 28.8482C61.8607 27.3447 62.1222 25.3672 62.1222 22.9158C62.1222 20.9438 61.9479 19.2169 61.5993 17.7352C61.2615 16.2425 60.7658 14.995 60.1121 13.9927C59.4693 12.9903 58.6957 12.2386 57.7914 11.7374C56.898 11.2253 55.8956 10.9693 54.7843 10.9693H53.8365V32.558C53.8365 32.7432 53.8909 32.8903 53.9999 32.9993C54.1197 33.1082 54.2886 33.1627 54.5065 33.1627H56.2062Z" fill="#03296A"/>
<path d="M72.723 24.7135H80.829L80.8944 25.073H72.6413L72.723 24.7135ZM74.0958 33.3915C74.0958 33.4133 74.0849 33.4405 74.0631 33.4732C74.0413 33.495 74.0032 33.5059 73.9487 33.5059H68.2124C68.158 33.5059 68.1198 33.495 68.098 33.4732C68.0762 33.4405 68.0654 33.4133 68.0654 33.3915C68.0654 33.337 68.0871 33.3043 68.1307 33.2934C68.1634 33.2716 68.1961 33.2553 68.2288 33.2444L68.7027 33.0973C69.1058 32.9557 69.5199 32.6561 69.9448 32.1985C70.3697 31.7409 70.7129 31.0654 70.9744 30.172L75.9262 13.0611C76.0678 12.5382 76.0733 12.1187 75.9425 11.8028C75.8227 11.4868 75.6048 11.2362 75.2888 11.051C75.1363 10.9311 75.0219 10.8603 74.9456 10.8385C74.8803 10.8167 74.8476 10.7841 74.8476 10.7405C74.8476 10.6969 74.8585 10.6697 74.8803 10.6588C74.913 10.637 74.9565 10.6261 75.011 10.6261H82.5777C82.6322 10.6261 82.6703 10.637 82.6921 10.6588C82.7248 10.6697 82.7411 10.6969 82.7411 10.7405C82.7411 10.7841 82.7084 10.8276 82.6431 10.8712C82.5777 10.9039 82.4633 10.9529 82.2999 11.0183C82.1037 11.0728 81.9785 11.1599 81.924 11.2798C81.8695 11.3996 81.8967 11.623 82.0057 11.9498L88.4447 32.3782C88.521 32.6179 88.6354 32.8086 88.7879 32.9502C88.9404 33.081 89.1257 33.1681 89.3436 33.2117C89.4198 33.2335 89.4743 33.2553 89.507 33.2771C89.5397 33.2989 89.556 33.337 89.556 33.3915C89.556 33.4133 89.5397 33.4405 89.507 33.4732C89.4852 33.495 89.4471 33.5059 89.3926 33.5059H81.0905C81.036 33.5059 80.9924 33.495 80.9598 33.4732C80.938 33.4405 80.9271 33.4133 80.9271 33.3915C80.9271 33.337 80.9434 33.3043 80.9761 33.2934C81.0197 33.2825 81.0796 33.2662 81.1559 33.2444L81.8259 33.0973C82.1201 33.0211 82.2944 32.9121 82.3489 32.7705C82.4034 32.6179 82.387 32.3946 82.2999 32.1004L76.2204 12.816L76.678 11.672L71.3176 30.2537C71.1759 30.744 71.1814 31.1798 71.3339 31.5611C71.4973 31.9315 71.7643 32.2475 72.1347 32.509C72.516 32.7596 72.9682 32.9666 73.4911 33.13L73.916 33.2444C73.9814 33.2662 74.025 33.288 74.0468 33.3098C74.0795 33.3207 74.0958 33.3479 74.0958 33.3915Z" fill="#03296A"/>
<path d="M103.101 23.7493L102.709 24.4357L107.236 11.2308C107.312 10.9802 107.389 10.8167 107.465 10.7405C107.552 10.6642 107.666 10.6261 107.808 10.6261H114.28C114.334 10.6261 114.372 10.637 114.394 10.6588C114.427 10.6806 114.443 10.7078 114.443 10.7405C114.443 10.7841 114.427 10.8167 114.394 10.8385C114.361 10.8494 114.307 10.8658 114.231 10.8876L113.087 11.0837C112.869 11.1164 112.705 11.2199 112.596 11.3942C112.498 11.5576 112.46 11.7755 112.482 12.0479L113.92 32.2148C113.942 32.5308 113.991 32.7378 114.067 32.8358C114.144 32.9339 114.307 33.0102 114.558 33.0646L115.669 33.2444C115.745 33.2553 115.8 33.2716 115.832 33.2934C115.865 33.3043 115.881 33.337 115.881 33.3915C115.881 33.4133 115.865 33.4405 115.832 33.4732C115.811 33.495 115.772 33.5059 115.718 33.5059H106.305C106.25 33.5059 106.206 33.495 106.174 33.4732C106.141 33.4405 106.125 33.4133 106.125 33.3915C106.125 33.337 106.141 33.3043 106.174 33.2934C106.217 33.2716 106.277 33.2553 106.354 33.2444L107.448 33.0646C107.71 33.0102 107.89 32.9284 107.988 32.8195C108.086 32.6996 108.124 32.4926 108.102 32.1985L106.746 13.1429L107.056 12.816L100.732 31.7899C100.666 31.9969 100.601 32.1277 100.536 32.1821C100.481 32.2366 100.427 32.2638 100.372 32.2638C100.339 32.2638 100.301 32.2529 100.258 32.2312C100.225 32.1985 100.187 32.1494 100.143 32.0841C100.111 32.0078 100.072 31.9097 100.029 31.7899L92.9852 13.1755L93.2467 12.6689L91.8739 30.8093C91.8412 31.3323 92.021 31.7954 92.4132 32.1985C92.8163 32.5907 93.3447 32.8794 93.9984 33.0646L94.8319 33.2444C94.8973 33.2662 94.9409 33.288 94.9627 33.3098C94.9844 33.3207 94.9953 33.3479 94.9953 33.3915C94.9953 33.4133 94.9844 33.4405 94.9627 33.4732C94.9409 33.495 94.9082 33.5059 94.8646 33.5059H88.7197C88.6653 33.5059 88.6271 33.495 88.6053 33.4732C88.5835 33.4405 88.5727 33.4133 88.5727 33.3915C88.5727 33.337 88.5944 33.3043 88.638 33.2934C88.6707 33.2716 88.7088 33.2553 88.7524 33.2444L89.3898 33.081C89.9454 32.9067 90.4248 32.6234 90.8279 32.2312C91.2311 31.828 91.4599 31.3378 91.5143 30.7603L92.8054 13.7312C92.8817 12.8814 92.8762 12.244 92.7891 11.8191C92.7019 11.3833 92.5058 11.1382 92.2007 11.0837L91.1548 10.9203C91.0567 10.8985 90.9805 10.8767 90.926 10.8549C90.8824 10.8331 90.8606 10.8004 90.8606 10.7568C90.8606 10.6697 90.9369 10.6261 91.0894 10.6261H97.7409C97.8499 10.6261 97.9425 10.6588 98.0187 10.7241C98.1059 10.7895 98.1876 10.9148 98.2639 11.1L103.101 23.7493Z" fill="#03296A"/>
<path d="M124.492 32.5907C124.492 32.7214 124.552 32.8249 124.672 32.9012C124.792 32.9666 124.96 33.0211 125.178 33.0646L126.306 33.2444C126.458 33.2662 126.535 33.3098 126.535 33.3751C126.535 33.4187 126.518 33.4514 126.486 33.4732C126.464 33.495 126.42 33.5059 126.355 33.5059H116.844C116.778 33.5059 116.729 33.495 116.696 33.4732C116.675 33.4514 116.664 33.4187 116.664 33.3751C116.664 33.3098 116.74 33.2662 116.893 33.2444L118.02 33.0646C118.249 33.0211 118.418 32.9666 118.527 32.9012C118.647 32.8249 118.707 32.7214 118.707 32.5907V11.5413C118.707 11.4105 118.647 11.3125 118.527 11.2471C118.418 11.1708 118.249 11.1109 118.02 11.0673L116.893 10.8876C116.74 10.8658 116.664 10.8167 116.664 10.7405C116.664 10.7078 116.675 10.6806 116.696 10.6588C116.729 10.637 116.778 10.6261 116.844 10.6261H126.355C126.42 10.6261 126.464 10.637 126.486 10.6588C126.518 10.6806 126.535 10.7078 126.535 10.7405C126.535 10.8167 126.458 10.8658 126.306 10.8876L125.178 11.0673C124.96 11.1109 124.792 11.1708 124.672 11.2471C124.552 11.3125 124.492 11.4105 124.492 11.5413V32.5907Z" fill="#03296A"/>
<path d="M136.919 33.8327C135.96 33.8327 135.17 33.6911 134.549 33.4078C133.928 33.1246 133.443 32.8413 133.094 32.558C132.746 32.2747 132.506 32.1331 132.375 32.1331C132.277 32.1331 132.125 32.2257 131.918 32.4109C131.722 32.5852 131.498 32.7923 131.248 33.0319C131.008 33.2716 130.779 33.4786 130.561 33.653C130.354 33.8382 130.191 33.9308 130.071 33.9308C130.006 33.9308 129.929 33.8981 129.842 33.8327C129.755 33.7783 129.7 33.702 129.679 33.6039L128.518 26.0209C128.507 25.9447 128.507 25.8847 128.518 25.8412C128.529 25.7976 128.546 25.7703 128.567 25.7594C128.6 25.7376 128.633 25.7431 128.665 25.7758C128.709 25.7976 128.747 25.8357 128.78 25.8902C129.837 27.9385 130.812 29.5128 131.705 30.6132C132.599 31.7027 133.432 32.4545 134.206 32.8685C134.979 33.2825 135.725 33.4895 136.445 33.4895C137.556 33.4895 138.438 33.1954 139.092 32.607C139.757 32.0187 140.089 31.1253 140.089 29.9268C140.089 29.1642 139.936 28.4778 139.631 27.8677C139.337 27.2466 138.836 26.6855 138.128 26.1844C137.42 25.6832 136.45 25.2201 135.219 24.7952C133.454 24.1851 132.037 23.5041 130.97 22.7524C129.913 21.9897 129.145 21.1453 128.665 20.2193C128.197 19.2823 127.963 18.2363 127.963 17.0815C127.963 15.7414 128.306 14.5647 128.992 13.5514C129.69 12.5273 130.648 11.7319 131.869 11.1654C133.1 10.588 134.522 10.2992 136.134 10.2992C136.973 10.2992 137.67 10.3973 138.226 10.5934C138.782 10.7895 139.228 10.9856 139.566 11.1817C139.915 11.3778 140.176 11.4759 140.35 11.4759C140.525 11.4759 140.786 11.3724 141.135 11.1654C141.494 10.9475 141.843 10.735 142.181 10.528C142.519 10.3101 142.764 10.2012 142.916 10.2012C142.971 10.2012 143.025 10.223 143.08 10.2665C143.145 10.2992 143.183 10.3646 143.194 10.4627L144.992 17.8332C145.003 17.9204 145.003 17.9803 144.992 18.013C144.981 18.0457 144.959 18.0729 144.926 18.0947C144.905 18.1056 144.872 18.1002 144.828 18.0784C144.785 18.0566 144.752 18.0239 144.73 17.9803C143.565 16.0192 142.513 14.5102 141.576 13.4534C140.65 12.3856 139.773 11.6557 138.945 11.2634C138.128 10.8603 137.311 10.6588 136.494 10.6588C135.48 10.6588 134.647 11.002 133.993 11.6884C133.35 12.3639 133.029 13.2845 133.029 14.4503C133.029 15.2456 133.171 15.9593 133.454 16.5912C133.737 17.2231 134.211 17.7951 134.876 18.3072C135.54 18.8192 136.45 19.2768 137.605 19.6799C139.457 20.3337 140.917 21.0309 141.985 21.7718C143.063 22.5127 143.826 23.3244 144.273 24.2069C144.73 25.0894 144.959 26.0754 144.959 27.1649C144.959 28.407 144.638 29.5346 143.995 30.5479C143.363 31.5502 142.448 32.351 141.249 32.9502C140.051 33.5386 138.607 33.8327 136.919 33.8327Z" fill="#03296A"/>
</svg>
